<svg width="23" height="23" viewBox="0 0 23 23" fill="none" xmlns="http://www.w3.org/2000/svg">
<path d="M4.6665 0V1H0.666504V23H22.6665V1H18.6665V0H16.6665V1H6.6665V0H4.6665ZM2.6665 3H4.6665V4H6.6665V3H16.6665V4H18.6665V3H20.6665V5H2.6665V3ZM2.6665 7H20.6665V21H2.6665V7ZM8.6665 9V11H10.6665V9H8.6665ZM12.6665 9V11H14.6665V9H12.6665ZM16.6665 9V11H18.6665V9H16.6665ZM11.6665 12V16H15.6665V12H11.6665ZM4.6665 13V15H6.6665V13H4.6665ZM8.6665 13V15H10.6665V13H8.6665ZM16.6665 13V15H18.6665V13H16.6665ZM4.6665 17V19H6.6665V17H4.6665ZM8.6665 17V19H10.6665V17H8.6665ZM12.6665 17V19H14.6665V17H12.6665Z" fill="#6E7491"/>
</svg>
