<svg width="16" height="16" viewBox="0 0 16 16" fill="none" xmlns="http://www.w3.org/2000/svg">
<path d="M9.2412 8.0825L5.5842 4.4255C5.51111 4.35894 5.45212 4.27839 5.41072 4.18863C5.36931 4.09887 5.34634 4.00171 5.34316 3.90291C5.33997 3.80411 5.35664 3.70568 5.39218 3.61343C5.42772 3.52119 5.4814 3.43702 5.55005 3.36589C5.6187 3.29476 5.70092 3.23813 5.79185 3.19935C5.88277 3.16057 5.98056 3.14043 6.07941 3.14011C6.17826 3.13979 6.27617 3.15931 6.36734 3.19751C6.45851 3.23571 6.5411 3.29181 6.6102 3.3625L6.6282 3.3805L10.8082 7.5595C10.9468 7.69808 11.0246 7.88603 11.0246 8.082C11.0246 8.27797 10.9468 8.46591 10.8082 8.6045L6.6292 12.7835C6.56177 12.8533 6.48125 12.9091 6.39224 12.9478C6.30322 12.9865 6.20747 13.0073 6.11043 13.0089C6.01339 13.0106 5.91698 12.9931 5.82669 12.9575C5.73639 12.922 5.654 12.8689 5.5842 12.8015C5.5144 12.7341 5.45857 12.6535 5.41989 12.5645C5.38121 12.4755 5.36045 12.3798 5.35877 12.2827C5.3571 12.1857 5.37456 12.0893 5.41015 11.999C5.44574 11.9087 5.49877 11.8263 5.5662 11.7565L5.5842 11.7385L9.2412 8.0825Z" fill="#605DEC" stroke="#605DEC" stroke-width="0.5"/>
</svg>
