<svg width="28" height="26" viewBox="0 0 28 26" fill="none" xmlns="http://www.w3.org/2000/svg">
<path d="M5.13317 5.51998C3.93317 4.66665 3.63984 3.01332 4.47984 1.79998C5.31984 0.599985 6.9865 0.306651 8.19984 1.14665C9.39984 1.99998 9.69317 3.65332 8.85317 4.86665C7.99984 6.06665 6.3465 6.35998 5.13317 5.51998ZM19.3332 23.3333H9.9065C7.93317 23.3333 6.25317 21.8933 5.95984 19.9467L3.33317 7.33332H0.666504L3.31984 20.3467C3.56476 21.9213 4.36457 23.3566 5.57487 24.3933C6.78518 25.43 8.32623 25.9998 9.91984 26H19.3332V23.3333ZM19.6398 18H13.1332L11.7598 12.5333C13.8665 13.72 16.1332 14.5867 18.6265 14.16V11.32C16.4532 11.7333 14.0398 10.96 12.3732 9.65332L10.1865 7.95998C9.87984 7.71998 9.53317 7.55999 9.17317 7.45332C8.74492 7.32699 8.29355 7.29963 7.85317 7.37332H7.8265C7.04135 7.51271 6.34303 7.9566 5.88356 8.60835C5.42408 9.26011 5.24064 10.067 5.37317 10.8533L7.17317 18.7467C7.34904 19.6613 7.83777 20.4862 8.55547 21.0798C9.27318 21.6735 10.1751 21.9988 11.1065 22H20.2398L25.3332 26L27.3332 24L19.6398 18Z" fill="#6E7491"/>
</svg>
