<svg width="27" height="22" viewBox="0 0 27 22" fill="none" xmlns="http://www.w3.org/2000/svg">
<path d="M12.2388 2.40599L13.0518 2.62499L15.4888 6.594L12.6768 5.75L12.2388 2.40599Z" fill="#6E7491"/>
<path d="M2.61376 0.624994L3.05176 0.749994L4.64476 4.93799L4.80176 5.406L5.26976 5.531L23.4578 11.156C23.6109 11.1992 23.7537 11.2726 23.878 11.3719C24.0022 11.4712 24.1053 11.5945 24.181 11.7343C24.2568 11.8741 24.3038 12.0278 24.3192 12.1861C24.3346 12.3444 24.3182 12.5042 24.2708 12.656C24.2276 12.8091 24.1542 12.952 24.0549 13.0762C23.9555 13.2004 23.8323 13.3035 23.6925 13.3793C23.5526 13.4551 23.399 13.5021 23.2407 13.5175C23.0824 13.5329 22.9226 13.5164 22.7708 13.469L16.0208 11.437L15.6768 11.344L15.3638 11.469L5.42676 15.625L4.67676 15.312L10.3018 11.437L12.0208 10.25L10.0208 9.656L2.36376 7.344L2.61376 0.624994Z" fill="#6E7491"/>
<path fill-rule="evenodd" clip-rule="evenodd" d="M16.7721 15.4393C17.0534 15.158 17.4349 15 17.8328 15C18.2306 15 18.6121 15.158 18.8934 15.4393C19.1747 15.7206 19.3328 16.1022 19.3328 16.5C19.3328 16.8978 19.1747 17.2794 18.8934 17.5607C18.6121 17.842 18.2306 18 17.8328 18C17.4349 18 17.0534 17.842 16.7721 17.5607C16.4908 17.2794 16.3328 16.8978 16.3328 16.5C16.3328 16.1022 16.4908 15.7206 16.7721 15.4393ZM0.332758 22V20H26.3328V22H0.332758Z" fill="#6E7491"/>
</svg>
