<svg width="33" height="32" viewBox="0 0 33 32" fill="none" xmlns="http://www.w3.org/2000/svg">
<path d="M26.239 6.78103C26.364 6.77303 26.493 6.77703 26.614 6.81303C26.8033 6.86581 26.9724 6.97435 27.0991 7.12452C27.2259 7.27469 27.3046 7.45954 27.3249 7.65503C27.3451 7.85051 27.3061 8.04757 27.2129 8.22057C27.1196 8.39357 26.9765 8.5345 26.802 8.62503L21.208 11.656L20.895 11.812L20.77 12.156L17.052 21.094L16.614 21.281L17.677 15.375L18.052 13.344L16.239 14.313L9.92701 17.719L5.95801 13.406L6.11401 13.312L9.77101 14.938L10.239 15.156L10.645 14.906L25.865 6.87503C25.9813 6.81661 26.109 6.78452 26.239 6.78103Z" fill="#6E7491"/>
<path d="M13.708 8.09403L17.552 9.03103L15.489 10.094L13.239 8.37503L13.708 8.09403Z" fill="#6E7491"/>
<path fill-rule="evenodd" clip-rule="evenodd" d="M3.33301 28V26H29.333V28H3.33301Z" fill="#6E7491"/>
</svg>
