<svg width="17" height="17" viewBox="0 0 17 17" fill="none" xmlns="http://www.w3.org/2000/svg">
<path d="M7.90888 0.682938C8.10452 0.368281 8.56248 0.36828 8.75811 0.682937L11.2415 4.67708C11.3103 4.78779 11.4197 4.86723 11.5462 4.89849L16.1123 6.02605C16.472 6.11488 16.6135 6.55042 16.3747 6.83372L13.3435 10.4298C13.2594 10.5295 13.2177 10.658 13.2271 10.788L13.5657 15.4791C13.5923 15.8486 13.2218 16.1178 12.8786 15.9782L8.52184 14.2066C8.40108 14.1575 8.26591 14.1575 8.14515 14.2066L3.78837 15.9782C3.44515 16.1178 3.07465 15.8486 3.10133 15.4791L3.43994 10.788C3.44932 10.658 3.40756 10.5295 3.32354 10.4298L0.292286 6.83372C0.053485 6.55042 0.195001 6.11488 0.554714 6.02605L5.12077 4.89849C5.24733 4.86723 5.35668 4.78779 5.42551 4.67708L7.90888 0.682938Z" fill="url(#paint0_linear_103_2958)"/>
<defs>
<linearGradient id="paint0_linear_103_2958" x1="8.3335" y1="0" x2="8.3335" y2="18" gradientUnits="userSpaceOnUse">
<stop stop-color="#605DEC"/>
<stop offset="1" stop-color="#2A26D9"/>
</linearGradient>
</defs>
</svg>
