<svg width="17" height="17" viewBox="0 0 17 17" fill="none" xmlns="http://www.w3.org/2000/svg">
<path d="M8.10148 13.2802L8.10147 13.2802L4.48964 14.749L4.77035 10.86C4.79851 10.47 4.6732 10.0843 4.42114 9.78529L1.90819 6.80409L5.69352 5.86932C6.0732 5.77556 6.40126 5.53722 6.60776 5.20509L8.6665 1.89389L10.7253 5.20509L11.5745 4.67708L10.7253 5.20509C10.9318 5.53722 11.2598 5.77556 11.6395 5.86932L15.4248 6.80409L12.9119 9.78529C12.6598 10.0843 12.5345 10.47 12.5627 10.86L12.8434 14.749L9.23153 13.2802L8.85485 14.2066L9.23153 13.2802C8.86925 13.1329 8.46376 13.1329 8.10148 13.2802ZM1.12746 6.99689L1.12808 6.99674C1.12787 6.99679 1.12767 6.99684 1.12746 6.99689L1.00759 6.51147L1.12746 6.99689Z" stroke="url(#paint0_linear_103_991)" stroke-width="2"/>
<defs>
<linearGradient id="paint0_linear_103_991" x1="8.6665" y1="0" x2="8.6665" y2="18" gradientUnits="userSpaceOnUse">
<stop stop-color="#605DEC"/>
<stop offset="1" stop-color="#2A26D9"/>
</linearGradient>
</defs>
</svg>
