<svg width="204" height="37" viewBox="0 0 204 37" fill="none" xmlns="http://www.w3.org/2000/svg">
<path d="M19.5425 7.66937L26.1503 9.57702L33.4132 4.30225L22.9901 4.60104C22.888 4.60661 22.7891 4.63826 22.7028 4.69297L19.4046 6.58913C19.302 6.64597 19.2188 6.73229 19.1658 6.83692C19.1128 6.94154 19.0924 7.05967 19.1073 7.17601C19.1221 7.29236 19.1715 7.40157 19.2491 7.48952C19.3267 7.57748 19.4289 7.64013 19.5425 7.66937Z" fill="#605DEC"/>
<path d="M52.0298 1.76261L44.7899 0.199713C44.1811 0.0675289 43.5509 0.0678737 42.9421 0.200724C42.3334 0.333575 41.7604 0.595823 41.2619 0.96967L19.3929 16.863L14.1411 16.6331C13.8402 16.6229 13.5438 16.7074 13.2936 16.8748C13.0434 17.0421 12.8521 17.2838 12.7467 17.5657C12.6413 17.8476 12.6271 18.1556 12.7062 18.446C12.7852 18.7364 12.9535 18.9947 13.1872 19.1843L18.3011 23.241C18.3853 23.3089 18.4855 23.354 18.5922 23.3722C18.6988 23.3903 18.8083 23.3807 18.9102 23.3444C20.3697 22.7813 25.8053 19.8968 32.2293 16.3688L33.5164 29.596C33.5273 29.7105 33.5693 29.8199 33.6378 29.9124C33.7064 30.0048 33.7988 30.0768 33.9053 30.1206C34.0117 30.1643 34.1281 30.1782 34.2418 30.1607C34.3555 30.1432 34.4623 30.0949 34.5507 30.0212L37.4236 27.6309C37.5809 27.4989 37.6867 27.3159 37.7224 27.1137L40.446 11.841C45.0428 9.2898 49.4327 6.81904 52.524 5.07227C52.8448 4.89771 53.1042 4.62875 53.267 4.30184C53.4298 3.97492 53.4883 3.60585 53.4343 3.24463C53.3804 2.88341 53.2167 2.5475 52.9655 2.28241C52.7143 2.01731 52.3876 1.83585 52.0298 1.76261Z" fill="#605DEC"/>
<path d="M29.7091 23.1463C29.7091 23.1463 22.2927 30.9613 16.3637 30.4863C12.6446 30.1884 9.11623 29.9859 9.69099 25.8154C10.1253 22.6644 13.0273 22.4791 15.0292 23.8136C18.7405 26.2879 17.9795 33.0952 13.6946 35.1572C9.26422 37.2893 5.12187 34.5479 2.35099 30.4863C0.601678 27.9222 0.958289 24.0981 1.98865 20.4773C3.47274 15.2619 9.02369 11.8027 9.02369 11.8027" stroke="#605DEC" stroke-width="0.526744" stroke-linecap="round" stroke-linejoin="round" stroke-dasharray="5.27 2.63"/>
<path d="M66.2086 8.58V25.5H63.4726V14.316L59.0086 22.764H56.9446L52.4566 14.436L52.4806 25.5H49.7446V8.58H52.1926L58.0006 19.644L63.7846 8.58H66.2086ZM80.7962 13.788L73.7402 29.82H70.7162L72.8522 25.044L67.9562 13.788H71.1242L74.4362 22.068L77.8442 13.788H80.7962ZM99.0211 8.58V25.5H96.2851V14.316L91.8211 22.764H89.7571L85.2691 14.436L85.2931 25.5H82.5571V8.58H85.0051L90.8131 19.644L96.5971 8.58H99.0211ZM102.425 13.764H105.425V25.5H102.425V13.764ZM105.569 8.316V11.268H102.257V8.316H105.569ZM108.518 8.58H111.518V25.5H108.518V8.58ZM124.908 20.172H116.916C117.012 21.26 117.34 22.068 117.9 22.596C118.46 23.124 119.26 23.388 120.3 23.388C121.596 23.388 122.78 22.972 123.852 22.14L124.716 24.204C124.172 24.652 123.484 25.012 122.652 25.284C121.836 25.556 121.012 25.692 120.18 25.692C118.26 25.692 116.74 25.148 115.62 24.06C114.516 22.972 113.964 21.484 113.964 19.596C113.964 18.396 114.204 17.332 114.684 16.404C115.164 15.476 115.836 14.756 116.7 14.244C117.58 13.732 118.572 13.476 119.676 13.476C121.292 13.476 122.564 13.996 123.492 15.036C124.436 16.076 124.908 17.508 124.908 19.332V20.172ZM119.748 15.588C118.948 15.588 118.3 15.844 117.804 16.356C117.324 16.868 117.028 17.604 116.916 18.564H122.34C122.308 17.588 122.068 16.852 121.62 16.356C121.172 15.844 120.548 15.588 119.748 15.588ZM131.682 25.692C130.642 25.692 129.682 25.564 128.802 25.308C127.938 25.052 127.202 24.684 126.594 24.204L127.434 22.116C128.682 23.028 130.114 23.484 131.73 23.484C132.418 23.484 132.938 23.372 133.29 23.148C133.658 22.924 133.842 22.604 133.842 22.188C133.842 21.836 133.714 21.564 133.458 21.372C133.218 21.18 132.778 21.004 132.138 20.844L130.218 20.412C129.13 20.172 128.322 19.78 127.794 19.236C127.266 18.692 127.002 17.988 127.002 17.124C127.002 16.404 127.202 15.772 127.602 15.228C128.018 14.668 128.586 14.236 129.306 13.932C130.042 13.628 130.89 13.476 131.85 13.476C132.682 13.476 133.482 13.604 134.25 13.86C135.034 14.116 135.722 14.476 136.314 14.94L135.474 16.98C134.258 16.1 133.042 15.66 131.826 15.66C131.17 15.66 130.658 15.78 130.29 16.02C129.922 16.26 129.738 16.596 129.738 17.028C129.738 17.348 129.85 17.612 130.074 17.82C130.314 18.028 130.69 18.188 131.202 18.3L133.194 18.756C134.362 19.012 135.218 19.42 135.762 19.98C136.306 20.524 136.578 21.244 136.578 22.14C136.578 23.228 136.138 24.092 135.258 24.732C134.378 25.372 133.186 25.692 131.682 25.692ZM143.259 11.124H137.739V8.58H151.875V11.124H146.355V25.5H143.259V11.124ZM159.582 15.972L157.83 16.14C155.846 16.348 154.854 17.356 154.854 19.164V25.5H151.854V13.764H154.71V15.828C155.318 14.42 156.574 13.652 158.478 13.524L159.39 13.452L159.582 15.972ZM166.035 13.476C167.683 13.476 168.907 13.876 169.707 14.676C170.507 15.476 170.907 16.708 170.907 18.372V25.5H168.051V23.7C167.779 24.324 167.347 24.812 166.755 25.164C166.179 25.516 165.507 25.692 164.739 25.692C163.955 25.692 163.243 25.532 162.603 25.212C161.963 24.892 161.459 24.452 161.091 23.892C160.723 23.332 160.539 22.708 160.539 22.02C160.539 21.156 160.755 20.476 161.187 19.98C161.635 19.484 162.355 19.124 163.347 18.9C164.339 18.676 165.707 18.564 167.451 18.564H168.051V18.012C168.051 17.212 167.875 16.636 167.523 16.284C167.187 15.932 166.619 15.756 165.819 15.756C165.195 15.756 164.539 15.868 163.851 16.092C163.179 16.3 162.515 16.596 161.859 16.98L161.019 14.916C161.675 14.5 162.467 14.156 163.395 13.884C164.323 13.612 165.203 13.476 166.035 13.476ZM165.339 23.532C166.139 23.532 166.787 23.268 167.283 22.74C167.795 22.196 168.051 21.5 168.051 20.652V20.148H167.619C166.547 20.148 165.715 20.196 165.123 20.292C164.531 20.388 164.107 20.556 163.851 20.796C163.595 21.036 163.467 21.364 163.467 21.78C163.467 22.292 163.643 22.716 163.995 23.052C164.347 23.372 164.795 23.532 165.339 23.532ZM185.14 13.788L180.004 25.5H177.388L172.3 13.788H175.468L178.78 22.068L182.188 13.788H185.14ZM196.697 20.172H188.705C188.801 21.26 189.129 22.068 189.689 22.596C190.249 23.124 191.049 23.388 192.089 23.388C193.385 23.388 194.569 22.972 195.641 22.14L196.505 24.204C195.961 24.652 195.273 25.012 194.441 25.284C193.625 25.556 192.801 25.692 191.969 25.692C190.049 25.692 188.529 25.148 187.409 24.06C186.305 22.972 185.753 21.484 185.753 19.596C185.753 18.396 185.993 17.332 186.473 16.404C186.953 15.476 187.625 14.756 188.489 14.244C189.369 13.732 190.361 13.476 191.465 13.476C193.081 13.476 194.353 13.996 195.281 15.036C196.225 16.076 196.697 17.508 196.697 19.332V20.172ZM191.537 15.588C190.737 15.588 190.089 15.844 189.593 16.356C189.113 16.868 188.817 17.604 188.705 18.564H194.129C194.097 17.588 193.857 16.852 193.409 16.356C192.961 15.844 192.337 15.588 191.537 15.588ZM199.151 8.58H202.151V25.5H199.151V8.58Z" fill="#605DEC"/>
</svg>
